# xmcd
#
# Track frame offsets: 
#        150
#        23200
#        38987
#        60680
#        87912
#        102927
#        122362
#        145392
#        175142
#
# Disc length: 2519 seconds
#
# Revision: 4
# Processed by: cddbd v1.5.2PL0 Copyright (c) Steve Scherf et al.
# Submitted via: ExactAudioCopy v0.99pb5
#
DISCID=7309d509
DTITLE=Walker Joe Louis - Blue Soul
DYEAR=1989
DGENRE=Blues
TTITLE0=Prove Your Love
TTITLE1=Ain't Nothin' Goin' On
TTITLE2=T.L.C.
TTITLE3=Personal Baby
TTITLE4=Since You've Been Gone
TTITLE5=Alligator
TTITLE6=Dead Sea
TTITLE7=City Of Angels
TTITLE8=I'll Get To Heaven On My Own
EXTD=
EXTT0=
EXTT1=
EXTT2=
EXTT3=
EXTT4=
EXTT5=
EXTT6=
EXTT7=
EXTT8=
PLAYORDER=
